PathFileType	4	(X/Y/Z)	Trial60_Left_Ankle_markers_cropped.trc
DataRate	CameraRate	NumFrames	NumMarkers	Units	OrigDataRate	OrigDataStartFrame	OrigNumFrames																																																																																													
200	200	6	27	m	200	63	101
Frame#	Time	R_ASIS			L_ASIS			Sacral			L_Thigh_Superior			L_Thigh_Inferior			L_Thigh_Lateral			L_Shank_Superior			L_Shank_Inferior			L_Shank_Lateral			L_Heel			L_Midfoot_Superior			L_Midfoot_Lateral			L_Toe			R_Thigh_Superior			R_Thigh_Inferior			R_Thigh_Lateral			R_Shank_Superior			R_Shank_Lateral			R_Shank_Inferior			R_Heel			R_Midfoot_Superior			R_Midfoot_Lateral			R_Toe
		X1	Y1	Z1	X2	Y2	Z2	X3	Y3	Z3	X4	Y4	Z4	X5	Y5	Z5	X6	Y6	Z6	X7	Y7	Z7	X8	Y8	Z8	X9	Y9	Z9	X10	Y10	Z10	X11	Y11	Z11	X12	Y12	Z12	X13	Y13	Z13	X14	Y14	Z14	X15	Y15	Z15	X16	Y16	Z16	X17	Y17	Z17	X18	Y18	Z18	X19	Y19	Z19	X20	Y20	Z20	X21	Y21	Z21	X22	Y22	Z22	X23	Y23	Z23

64	   0.315	   -0.58668446029969	    0.93431800947021	   -0.38793477746849	   -0.55144347530756	    0.95079537199140	   -0.66357514530347	   -0.79158931207205	    0.97545949308565	   -0.55634545824469	   -0.44880369500478	    0.79916256098275	   -0.63073041359058	   -0.35054035647621	    0.63709621132256	   -0.64087895395280	   -0.45037280834722	    0.68550068626342	   -0.72453849251311	   -0.30333124012555	    0.51046473779236	   -0.66419801908547	   -0.22998305303731	    0.29624713310039	   -0.68159611320292	   -0.32551558696324	    0.37919364437763	   -0.74227328595029	   -0.30449148969040	    0.13607954978356	   -0.68468258729256	   -0.13064515967478	    0.17397341715150	   -0.67881386558281	   -0.20599830631260	    0.11763124730520	   -0.72916085273411	   -0.01234748988267	    0.10365137878011	   -0.64809146746519	   -0.53627478728378	    0.73225785459578	   -0.43192968657632	   -0.54052509543850	    0.56733542318151	   -0.47174857460258	   -0.62816486233249	    0.61185832066157	   -0.39990789748726	   -0.57684950458850	    0.38761763897263	   -0.48485654318759	   -0.61922087166530	    0.19360849899591	   -0.51228019294972	   -0.66239661468509	    0.28279426021921	   -0.44326713522567	   -0.75926643678507	    0.03655130845834	   -0.56841739676786	   -0.58994886430234	    0.08865522700813	   -0.51755838524833	   -0.68254309288760	    0.02964155844737	   -0.48821811277860	   -0.47302542646493	    0.03229099985314	   -0.48152875943688
65	   0.320	   -0.58652572291421	    0.93443049795277	   -0.38825302780758	   -0.55120838358039	    0.95052972807964	   -0.66388144254031	   -0.79137023758166	    0.97532126892895	   -0.55675807193222	   -0.44888918344834	    0.79879525699559	   -0.63093081699482	   -0.35018996184988	    0.63689588807324	   -0.64110453994161	   -0.45021518541725	    0.68511072540612	   -0.72471304072657	   -0.30328863087723	    0.50988478579380	   -0.66453254104649	   -0.23095810069330	    0.29523709706360	   -0.68193574938185	   -0.32653402507957	    0.37852037006584	   -0.74209006057419	   -0.30676501556242	    0.13653263218518	   -0.68332586915370	   -0.13221240278523	    0.17159317601950	   -0.68062341729565	   -0.20946216352274	    0.11680829120783	   -0.72990719559254	   -0.01432569211373	    0.09914814641235	   -0.65257573524447	   -0.53610313484773	    0.73229710047058	   -0.43207387339268	   -0.54036481999235	    0.56734833943309	   -0.47180371912464	   -0.62803072520412	    0.61190299082941	   -0.40006078360401	   -0.57674391774931	    0.38759818247735	   -0.48491964997028	   -0.61919758653258	    0.19360911708067	   -0.51228650954073	   -0.66235183420238	    0.28283432596571	   -0.44326909824647	   -0.75926464178845	    0.03655468546897	   -0.56841445914719	   -0.58994563384873	    0.08865103008397	   -0.51755634518151	   -0.68254123759494	    0.02964279745671	   -0.48821790722409	   -0.47302758819846	    0.03228455339875	   -0.48153681542546
66	   0.325	   -0.58636538500532	    0.93454043529915	   -0.38854381992477	   -0.55094902513372	    0.95026130528828	   -0.66416050890685	   -0.79114088376644	    0.97518012078034	   -0.55715776439294	   -0.44890785373912	    0.79844228171543	   -0.63113631816380	   -0.34980916948588	    0.63669383861988	   -0.64131492437085	   -0.45007134584314	    0.68472050743098	   -0.72487734299975	   -0.30323013531320	    0.50928858889462	   -0.66480573477719	   -0.23193201348885	    0.29420761585997	   -0.68218013128794	   -0.32751073021937	    0.37784903313104	   -0.74185641302200	   -0.30897124251580	    0.13688128971931	   -0.68209537110010	   -0.13384161427615	    0.16928624101360	   -0.68207576849863	   -0.21273306889725	    0.11592596332221	   -0.73040994236897	   -0.01648595933275	    0.09490495612924	   -0.65620049607022	   -0.53592856779006	    0.73233775935377	   -0.43219682371173	   -0.54020515346847	    0.56736063382878	   -0.47184543459545	   -0.62789519769785	    0.61194411231870	   -0.40020236927703	   -0.57663977608818	    0.38758430206013	   -0.48496564284486	   -0.61917563456432	    0.19360990866974	   -0.51228878450922	   -0.66230924671096	    0.28287481803032	   -0.44326533143635	   -0.75926293694917	    0.03655839544800	   -0.56841153940877	   -0.58994365679474	    0.08864760790065	   -0.51755334842036	   -0.68254055486922	    0.02964391200675	   -0.48821776315075	   -0.47302889252831	    0.03227782222126	   -0.48154387872174
67	   0.330	   -0.58619727864304	    0.93464697006057	   -0.38881393463610	   -0.55065971394750	    0.94999668344069	   -0.66442279575895	   -0.79089930633529	    0.97503722431451	   -0.55754651422665	   -0.44885426628919	    0.79810894878772	   -0.63134755754894	   -0.34941354903675	    0.63648541298049	   -0.64149417928876	   -0.44993092663918	    0.68433046178599	   -0.72502321025016	   -0.30316514227149	    0.50867740784679	   -0.66499745793850	   -0.23289590469613	    0.29316815822513	   -0.68229660281285	   -0.32843402335415	    0.37717900147988	   -0.74155925320153	   -0.31109260682855	    0.13711974847025	   -0.68095112118713	   -0.13549611233842	    0.16706977944873	   -0.68314145428790	   -0.21578465283189	    0.11498623387947	   -0.73064450137204	   -0.01875851928254	    0.09094652939679	   -0.65895768312314	   -0.53574613017396	    0.73237852107704	   -0.43230833634721	   -0.54004090136884	    0.56737202149906	   -0.47188249650659	   -0.62775346322364	    0.61198203393437	   -0.40033744830996	   -0.57653309604366	    0.38757459175886	   -0.48499800595988	   -0.61915323825137	    0.19361034125248	   -0.51228995481433	   -0.66226504650484	    0.28291459136867	   -0.44326028079229	   -0.75926135336179	    0.03656201531701	   -0.56840890249981	   -0.58994331913998	    0.08864505292803	   -0.51755019752825	   -0.68254123964408	    0.02964518309548	   -0.48821770776282	   -0.47302957740828	    0.03227106329303	   -0.48154977837449
68	   0.335	   -0.58601640622657	    0.93475005475945	   -0.38907068799249	   -0.55033823325940	    0.94974160504796	   -0.66467768054833	   -0.79064432116405	    0.97489349371854	   -0.55792617371489	   -0.44873617670177	    0.79779804524822	   -0.63155759774990	   -0.34902112888287	    0.63626941224225	   -0.64163143043723	   -0.44978954988658	    0.68394350486489	   -0.72514440782880	   -0.30310300191591	    0.50805322948381	   -0.66509957374354	   -0.23384354896290	    0.29212823824039	   -0.68226944642681	   -0.32929927626818	    0.37650820327887	   -0.74119323390822	   -0.31311399240530	    0.13724353743314	   -0.67985739948894	   -0.13714238079538	    0.16495896580206	   -0.68382493225318	   -0.21860251356594	    0.11399564584499	   -0.73061127370247	   -0.02107095320551	    0.08729128440691	   -0.66090165019041	   -0.53555119211070	    0.73241797294230	   -0.43241602465664	   -0.53986585291413	    0.56738196835530	   -0.47192052181694	   -0.62760147842777	    0.61201716245452	   -0.40046942645024	   -0.57641943708455	    0.38756726838424	   -0.48501903986156	   -0.61912819716553	    0.19360993301710	   -0.51229223946227	   -0.66221496168497	    0.28295245590599	   -0.44325759782630	   -0.75925987275069	    0.03656542374173	   -0.56840668543690	   -0.58994458882372	    0.08864329728748	   -0.51754755897571	   -0.68254336892405	    0.02964699258935	   -0.48821758629672	   -0.47302993154936	    0.03226429287562	   -0.48155468570314
69	   0.340	   -0.58581903751344	    0.93484964477807	   -0.38932166401786	   -0.54998767062446	    0.94949957272591	   -0.66493206019851	   -0.79037568481413	    0.97474936108867	   -0.55829783051512	   -0.44856877905221	    0.79751199993222	   -0.63175540560962	   -0.34864991858849	    0.63604943701338	   -0.64172505317871	   -0.44964849263125	    0.68356519150587	   -0.72523826335453	   -0.30305257922517	    0.50741882400093	   -0.66511786730729	   -0.23477050002388	    0.29109735945249	   -0.68210211546357	   -0.33010740915599	    0.37583395802726	   -0.74076354638137	   -0.31502407568238	    0.13725296295647	   -0.67878996420397	   -0.13875260627550	    0.16296521710208	   -0.68416052616601	   -0.22118334980728	    0.11296496082703	   -0.73033369170195	   -0.02335741927047	    0.08394782340404	   -0.66213235674465	   -0.53534014055613	    0.73245468706449	   -0.43252435367632	   -0.53967387808706	    0.56738927526885	   -0.47196160303365	   -0.62743605939266	    0.61204963665730	   -0.40059993468749	   -0.57629432578080	    0.38756025639851	   -0.48503005008561	   -0.61909815962760	    0.19360822610105	   -0.51229693025341	   -0.66215474074520	    0.28298754727559	   -0.44325980434847	   -0.75925840533880	    0.03656888929079	   -0.56840490214313	   -0.58994704689520	    0.08864205053651	   -0.51754590399041	   -0.68254677829893	    0.02964960187891	   -0.48821722958340	   -0.47303021280911	    0.03225737032892	   -0.48155879250809
